<svg id="Capa_1" enable-background="new 0 0 512 512" height="512" viewBox="0 0 512 512" width="512" xmlns="http://www.w3.org/2000/svg" xmlns:xlink="http://www.w3.org/1999/xlink"><linearGradient id="SVGID_1_" gradientUnits="userSpaceOnUse" x1="256" x2="256" y1="512" y2="0"><stop offset="0" stop-color="#ffe59a"/><stop offset="1" stop-color="#ffffd5"/></linearGradient><linearGradient id="SVGID_2_" gradientUnits="userSpaceOnUse" x1="256" x2="256" y1="105" y2="407.077"><stop offset="0" stop-color="#fd5900"/><stop offset="1" stop-color="#ffde00"/></linearGradient><g><circle cx="256" cy="256" fill="url(#SVGID_1_)" r="256"/><g><g><path d="m256 158.308c-24.493 0-44.423 19.93-44.423 44.423 0 18.619 11.904 35.374 29.63 41.672 3.54 1.258 5.909 4.616 5.909 8.373v70.66l8.885 8.885 8.885-8.885v-70.66c0-3.757 2.369-7.115 5.909-8.373 17.726-6.299 29.63-23.053 29.63-41.672-.002-24.494-19.932-44.423-44.425-44.423zm0 35.538c-4.906 0-8.885-3.978-8.885-8.885 0-4.908 3.978-8.884 8.885-8.884s8.885 3.977 8.885 8.884-3.979 8.885-8.885 8.885zm106.615-53.307c-14.698 0-26.654-11.956-26.654-26.654 0-4.911-3.974-8.885-8.885-8.885h-142.153c-4.911 0-8.885 3.974-8.885 8.885 0 14.698-11.956 26.654-26.654 26.654-4.911 0-8.885 3.974-8.885 8.884v100.846c0 71.051 45.291 133.885 112.689 156.349.911.304 1.865.46 2.811.46s1.9-.156 2.811-.46c67.399-22.464 112.69-85.299 112.69-156.349v-100.846c0-4.911-3.974-8.884-8.885-8.884zm-79.961 118.163v68.413c0 2.36-.937 4.616-2.603 6.282l-17.769 17.77c-1.735 1.735-4.008 2.603-6.282 2.603s-4.546-.868-6.282-2.603l-17.769-17.77c-1.666-1.666-2.603-3.921-2.603-6.282v-68.413c-21.491-10.229-35.538-31.981-35.538-55.971 0-34.289 27.903-62.192 62.192-62.192s62.192 27.903 62.192 62.192c0 23.99-14.047 45.742-35.538 55.971z" fill="url(#SVGID_2_)"/></g></g></g></svg>